<svg width="87" height="87" viewBox="0 0 87 87" fill="none" xmlns="http://www.w3.org/2000/svg">
<path d="M68.1152 42.0398C59.3215 42.0398 52.1856 34.901 52.1856 26.1036C52.1856 11.6817 40.5087 0 26.0928 0C11.6769 0 0 11.6817 0 26.1036V76.8686C0 77.6618 0.648716 78.3108 1.44159 78.3108H5.8024C5.8024 79.104 6.45112 79.753 7.24399 79.753H30.4536V85.5578C30.4536 86.351 31.1023 87 31.8952 87H55.1048C55.8977 87 56.5464 86.351 56.5464 85.5578V79.753H79.756C80.5489 79.753 81.1976 79.104 81.1976 78.3108H85.5584C86.3513 78.3108 87 77.6618 87 76.8686V60.9324C86.964 50.5126 78.5307 42.0758 68.1152 42.0398ZM53.6272 84.1156H33.3368V79.753H53.6272V84.1156ZM78.2784 76.8686H8.68559V68.1434H11.5688V73.9482H14.4519V68.1434H17.3351V73.9482H20.2183V68.1434H23.1015V73.9482H25.9847V68.1434H31.7871V73.9482H34.6703V68.1434H37.5534V73.9482H40.4366V68.1434H46.239V73.9482H49.1222V68.1434H52.0054V73.9482H54.8886V68.1434H57.7718V73.9482H60.6549V68.1434H66.6736V73.9482H69.5568V68.1434H72.4399V73.9482H75.3231V68.1434H78.2063V76.8686H78.2784ZM84.0808 75.3904H81.1976V66.7012C81.1976 65.908 80.5489 65.259 79.756 65.259H7.24399C6.45112 65.259 5.8024 65.908 5.8024 66.7012V75.3904H2.88318V26.1036C2.88318 13.3042 13.2987 2.88438 26.0928 2.88438C38.8869 2.88438 49.3024 13.2681 49.3024 26.1036C49.3024 36.5234 57.7357 44.9602 68.1512 44.9602C76.9449 44.9602 84.0808 52.099 84.0808 60.8964V75.3904Z" fill="#F7C933"/>
<path d="M78.1703 12.5114C78.0982 12.3311 77.9901 12.1869 77.846 12.0427L69.1604 3.31742C68.5837 2.74055 67.6828 2.74055 67.1061 3.31742C66.8178 3.60586 66.6736 3.96641 66.6736 4.32695V16.3692C65.9889 16.0808 65.2321 15.9366 64.5113 15.9366C61.9164 15.7563 59.6459 17.7032 59.4296 20.2992C59.8621 23.1115 62.493 25.0224 65.3041 24.5897C67.5026 24.2291 69.2325 22.4985 69.5929 20.2992V15.1073L75.3592 20.9121V25.0945C74.6745 24.806 73.9176 24.6618 73.1968 24.6618C70.602 24.4815 68.3315 26.4285 68.1152 29.0244C68.5477 31.8367 71.1786 33.7476 73.9897 33.3149C76.1881 32.9544 77.918 31.2238 78.2784 29.0244V13.0522C78.2784 12.8719 78.2424 12.6556 78.1703 12.5114ZM64.5113 21.7414C63.358 21.7414 62.3489 21.0563 62.3489 20.2992C62.3489 19.542 63.358 18.857 64.5113 18.857C65.6645 18.857 66.6736 19.542 66.6736 20.2992C66.6736 21.0563 65.6645 21.7414 64.5113 21.7414ZM73.1968 30.4666C72.0436 30.4666 71.0345 29.7816 71.0345 29.0244C71.0345 28.2673 72.0436 27.5822 73.1968 27.5822C74.3501 27.5822 75.3592 28.2673 75.3592 29.0244C75.3592 29.7816 74.3501 30.4666 73.1968 30.4666ZM75.3592 16.8019L69.5568 10.9971V7.86031L75.3592 13.6651V16.8019Z" fill="white"/>
<path d="M34.3459 41.0302L27.1019 33.7832C26.5253 33.2064 25.6243 33.2064 25.0477 33.7832C24.7593 34.0717 24.6152 34.4322 24.6152 34.7928V43.9146C23.9304 43.6262 23.1736 43.482 22.4528 43.482C19.8579 43.3017 17.5874 45.2486 17.3712 47.8446C17.5874 50.4405 19.8579 52.3875 22.4528 52.2072C25.0477 52.3875 27.3182 50.4405 27.5344 47.8446V38.2901L32.2917 43.0493C32.8683 43.5901 33.7693 43.5901 34.3459 43.0132C34.9226 42.4724 34.9226 41.6071 34.3459 41.0302ZM22.4528 49.2868C21.2995 49.2868 20.2904 48.6017 20.2904 47.8446C20.2904 47.0874 21.2995 46.4024 22.4528 46.4024C23.6061 46.4024 24.6152 47.0874 24.6152 47.8446C24.6512 48.6378 23.6421 49.2868 22.4528 49.2868Z" fill="white"/>
</svg>
