<svg width="123" height="142" viewBox="0 0 123 142" fill="none" xmlns="http://www.w3.org/2000/svg">
<path d="M61.5 0C54.1405 0 46.945 1.28638 40.1082 3.82325L41.8918 8.62794C48.1545 6.30375 54.7529 5.125 61.5 5.125C92.5857 5.125 117.875 30.4143 117.875 61.5C117.875 92.5857 92.5857 117.875 61.5 117.875C30.4143 117.875 5.125 92.5857 5.125 61.5C5.125 44.6003 12.7177 28.7128 25.625 18.0451V35.875H30.75V10.25H5.125V15.375H20.8229C7.66956 26.9831 0 43.7367 0 61.5C0 95.4096 27.5904 123 61.5 123C95.4096 123 123 95.4096 123 61.5C123 27.5904 95.4096 0 61.5 0Z" fill="#F7C933"/>
<path d="M46.125 81.9H41V87H82V81.9H76.875V73.1943L65.1234 61.5L76.875 49.8057V41.1H82V36H41V41.1H46.125V49.8057L57.8766 61.5L46.125 73.1943V81.9ZM51.25 47.6943V41.1H71.75V47.6943L61.5 57.8943L51.25 47.6943ZM61.5 65.1057L71.75 75.3057V81.9H51.25V75.3057L61.5 65.1057Z" fill="white"/>
<path d="M50 97H46V103H50V97Z" fill="#F7C933"/>
<path d="M63 97H59V103H63V97Z" fill="#F7C933"/>
<path d="M76 97H71V103H76V97Z" fill="#F7C933"/>
<ellipse cx="61.4999" cy="139" rx="30.5" ry="3" fill="black" fill-opacity="0.2"/>
</svg>
