<svg width="145" height="161" viewBox="0 0 145 161" fill="none" xmlns="http://www.w3.org/2000/svg">
<path d="M71.5341 101.212C71.4417 101.232 71.5341 101.212 71.4317 101.186C60.0561 101.645 53.3357 95.5448 50.4877 82.6304L48.4419 73.3538C48.2414 72.4444 48.8198 71.5539 49.7434 71.3502C50.667 71.1465 51.5663 71.7111 51.7668 72.6206L53.8126 81.8972C56.3196 93.2655 61.5746 98.2103 71.3201 97.8255C72.2376 97.8139 72.926 98.5204 72.9881 99.4604C73.03 100.309 72.3192 101.038 71.5341 101.212Z" fill="#F7C933"/>
<path d="M78.8393 102.938L77.1768 103.305C76.2533 103.509 75.3539 102.944 75.1534 102.035C74.9528 101.125 75.5312 100.235 76.4548 100.031L78.1173 99.6642C79.0408 99.4606 79.9402 100.025 80.1407 100.935C80.3413 101.844 79.7629 102.735 78.8393 102.938Z" fill="#F7C933"/>
<path d="M80.8868 116.173L79.3167 116.519C61.2145 120.511 42.038 107.335 37.9465 88.7817L27.2866 40.4435C26.8855 38.6246 27.7069 37.299 29.5541 36.8916L92.45 23.0213C94.2972 22.6139 96.4413 23.3332 96.8324 25.1067L107.482 73.3994C111.584 91.998 98.9428 112.191 80.8868 116.173ZM34.7386 42.6149L44.5963 87.3152C47.8655 102.14 63.5671 113.173 77.9288 110.006L79.4989 109.66C93.8145 106.503 104.204 89.7153 100.935 74.891L91.0772 30.1907L34.7386 42.6149Z" fill="#F7C933"/>
<path d="M107.549 130.797L59.5229 141.388C57.6757 141.796 55.8771 140.666 55.4759 138.847C55.0748 137.028 56.2316 135.247 58.0788 134.84L106.105 124.249C107.952 123.841 109.751 124.971 110.152 126.79C110.553 128.609 109.396 130.39 107.549 130.797Z" fill="#F7C933"/>
<path d="M83.0505 135.865C81.2034 136.272 79.4047 135.143 79.0036 133.324L74.6915 113.77C74.2904 111.951 75.4472 110.17 77.2944 109.763C79.1415 109.356 80.9402 110.485 81.3413 112.304L85.6534 131.857C86.0545 133.676 84.8977 135.457 83.0505 135.865Z" fill="#F7C933"/>
<path d="M105.27 80.277C103.423 80.6843 101.624 79.5551 101.223 77.7361C100.822 75.9172 101.979 74.1362 103.826 73.7288C110.383 72.2827 114.262 53.6408 111.825 42.5908C111.454 40.9083 110.742 38.7765 109.506 38.0001C107.829 36.9869 104.201 37.8824 100.352 38.8742C99.0694 39.2048 97.7402 39.5456 96.401 39.841C94.5538 40.2483 92.7552 39.1191 92.3541 37.3001C91.9529 35.4812 93.1098 33.7002 94.9569 33.2928C96.25 33.0077 97.5329 32.6771 98.7236 32.3668C103.994 31.0138 108.997 29.7673 113.081 32.2525C115.712 33.8656 117.456 36.7236 118.419 41.089C121.046 53.0031 117.969 77.4764 105.27 80.277Z" fill="#F7C933"/>
<path d="M38.2635 95.0514C25.5642 97.8519 12.4889 76.9884 9.87151 65.1198C8.91883 60.7999 9.28901 57.428 10.9981 54.8576C13.6572 50.8855 18.7208 49.9119 24.0715 48.9227C25.2822 48.7034 26.5853 48.4637 27.8783 48.1786C29.7254 47.7712 31.5241 48.9005 31.9252 50.7194C32.3263 52.5383 31.1695 54.3194 29.3223 54.7267C27.937 55.0322 26.5877 55.2821 25.3309 55.5116C21.4217 56.2306 17.7535 56.9442 16.659 58.5684C15.8536 59.7474 16.1141 62.0265 16.4852 63.709C18.922 74.759 30.2359 90.0505 36.8395 88.5942C38.6867 88.1868 40.4853 89.3161 40.8864 91.135C41.2575 92.8175 40.1107 94.644 38.2635 95.0514Z" fill="#F7C933"/>
<path d="M107.308 16.8344C106.523 17.0075 105.792 16.5488 105.622 15.7757L103.235 4.95307C103.064 4.18002 103.534 3.45648 104.319 3.28335C105.104 3.11023 105.835 3.56899 106.006 4.34204L108.392 15.1647C108.563 15.9377 108.093 16.6613 107.308 16.8344Z" fill="white"/>
<path d="M112.118 10.0993L100.111 12.7471C99.3263 12.9202 98.5956 12.4615 98.4251 11.6884C98.2546 10.9154 98.7246 10.1918 99.5096 10.0187L111.516 7.37092C112.301 7.19779 113.032 7.65655 113.202 8.4296C113.373 9.20265 112.903 9.92619 112.118 10.0993Z" fill="white"/>
<path d="M23.9458 119.715C23.5763 119.797 23.1829 119.55 23.1027 119.186L22.3907 115.957C22.3104 115.594 22.5635 115.204 22.9329 115.123C23.3024 115.041 23.6958 115.288 23.776 115.652L24.488 118.881C24.5683 119.244 24.3152 119.634 23.9458 119.715Z" fill="white"/>
<path d="M25.4315 117.669L21.7372 118.484C21.3678 118.565 20.9743 118.318 20.8941 117.955C20.8138 117.591 21.0669 117.201 21.4363 117.12L25.1307 116.305C25.5001 116.224 25.8936 116.471 25.9738 116.834C26.054 117.198 25.8009 117.588 25.4315 117.669Z" fill="white"/>
<path d="M119.994 26.0519C119.44 26.1742 118.934 25.8566 118.814 25.3109L117.811 20.7635C117.691 20.2179 118.016 19.7169 118.57 19.5947C119.125 19.4725 119.63 19.7901 119.751 20.3358L120.754 24.8831C120.874 25.4288 120.549 25.9297 119.994 26.0519Z" fill="white"/>
<path d="M122.079 23.2107L116.907 24.3513C116.352 24.4735 115.847 24.1559 115.726 23.6102C115.606 23.0645 115.931 22.5636 116.485 22.4414L121.657 21.3008C122.212 21.1786 122.717 21.4962 122.838 22.0419C122.958 22.5876 122.633 23.0885 122.079 23.2107Z" fill="white"/>
<path d="M41.0707 121.613C38.9003 122.092 36.7644 120.751 36.2931 118.613C35.8217 116.476 37.1955 114.361 39.3659 113.882C41.5363 113.404 43.6722 114.745 44.1435 116.882C44.6148 119.019 43.2411 121.134 41.0707 121.613ZM39.767 115.701C38.6125 115.956 37.8895 117.069 38.1402 118.206C38.3909 119.343 39.5151 120.049 40.6696 119.794C41.824 119.539 42.5471 118.426 42.2964 117.289C42.0457 116.153 40.9215 115.447 39.767 115.701Z" fill="white"/>
<path d="M69.0568 72.1907C68.5409 71.8277 68.2158 71.2318 68.0353 70.4133C67.7545 69.14 67.7547 68.0432 68.0822 67.1127C68.3996 66.1366 68.8556 65.1301 69.5425 64.0726C70.0386 63.2479 70.38 62.6004 70.593 62.0289C70.8059 61.4574 70.8341 60.9266 70.7038 60.3355C70.5734 59.7443 70.2422 59.3405 69.7464 59.0684C69.2506 58.7963 68.6101 58.7468 67.8251 58.9199C67.1786 59.0625 66.6083 59.3313 66.0581 59.691C65.5079 60.0508 64.8855 60.5218 64.2007 61.1497L63.3412 61.8638C62.528 62.5677 61.8493 63.0034 61.2489 63.1358C60.5563 63.2886 59.9419 63.1379 59.3036 62.6588C58.7114 62.1695 58.3301 61.5383 58.1496 60.7198C58.0293 60.1741 58.0113 59.6535 58.162 59.2388C58.2665 58.8343 58.5557 58.3891 58.9373 57.9234C59.9936 56.7845 61.2185 55.7514 62.6783 54.9049C64.138 54.0585 65.658 53.4849 67.2281 53.1386C68.9829 52.7516 70.6694 52.7135 72.1851 52.9991C73.7008 53.2848 74.9997 53.9044 76.0154 54.7771C77.0311 55.6499 77.7174 56.786 78.0082 58.1047C78.2289 59.1052 78.1985 60.0655 77.9634 60.9757C77.7283 61.8859 77.3808 62.7255 76.9108 63.449C76.4409 64.1726 75.8163 65.0733 75.0732 66.0955C74.3563 67.0165 73.804 67.8059 73.4063 68.4182C73.0548 69.0202 72.8519 69.6372 72.8437 70.2589C72.8817 70.8704 72.7049 71.3862 72.3595 71.7962C72.0141 72.2062 71.5463 72.5001 70.9921 72.6223C70.177 72.659 69.5727 72.5538 69.0568 72.1907ZM70.0204 81.6106C69.111 81.0005 68.541 80.1725 68.3003 79.0811C68.0597 77.9898 68.2185 76.9534 68.7969 76.0628C69.3653 75.1269 70.2087 74.5594 71.3632 74.3048C72.5176 74.0502 73.5214 74.2103 74.4308 74.8204C75.3401 75.4305 75.9101 76.2585 76.1508 77.3499C76.3915 78.4412 76.2326 79.4777 75.6542 80.3682C75.0858 81.3042 74.1963 81.8818 73.088 82.1262C71.9797 82.3706 70.9759 82.2105 70.0204 81.6106Z" fill="white"/>
<ellipse cx="83.5" cy="158.001" rx="30.5" ry="3" fill="black" fill-opacity="0.2"/>
</svg>
