<svg width="173" height="20" viewBox="0 0 173 20" fill="none" xmlns="http://www.w3.org/2000/svg">
<path d="M168.23 20H0L4.05271 0H173L168.23 20Z" fill="white"/>
<path d="M14.0578 14.9247L18.7438 4.43012C18.9126 4.04303 19.1659 3.82797 19.5881 3.82797H19.6725C20.0525 3.82797 20.348 4.04303 20.4746 4.43012L25.1606 14.8817C25.2028 15.0108 25.245 15.0968 25.245 15.2258C25.245 15.5699 24.9495 15.871 24.6118 15.871C24.3163 15.871 24.063 15.6559 23.9785 15.3979L22.7965 12.6882H16.4219L15.1977 15.4409C15.071 15.742 14.8599 15.914 14.5644 15.914C14.2267 15.914 13.9734 15.6559 13.9734 15.3118C13.9734 15.1828 14.0156 15.0538 14.0578 14.9247ZM22.2899 11.4839L19.6303 5.41937L16.9707 11.4839H22.2899Z" fill="black"/>
<path d="M26.8492 4.04302C26.8492 3.69893 27.1447 3.39786 27.4824 3.39786C27.8624 3.39786 28.1157 3.69893 28.1157 4.04302V15.2258C28.1157 15.6129 27.8624 15.871 27.4824 15.871C27.1025 15.871 26.8492 15.5699 26.8492 15.2258V4.04302V4.04302Z" fill="black"/>
<path d="M29.7199 11.4839C29.7199 8.98924 31.6196 6.88171 34.1103 6.88171C35.5456 6.88171 36.5166 7.44085 37.2765 8.12903C37.3609 8.21505 37.4876 8.38709 37.4876 8.60214C37.4876 8.94623 37.192 9.2473 36.8543 9.2473C36.6855 9.2473 36.5588 9.16128 36.4322 9.07526C35.7989 8.51612 35.1235 8.043 34.1103 8.043C32.3795 8.043 31.0286 9.54838 31.0286 11.4409V11.4839C31.0286 13.3763 32.3795 14.8817 34.1947 14.8817C35.1657 14.8817 35.9678 14.4086 36.601 13.8064C36.6855 13.7204 36.8121 13.6344 36.981 13.6344C37.2765 13.6344 37.572 13.9355 37.572 14.2365C37.572 14.4086 37.4876 14.5376 37.4031 14.6236C36.601 15.4409 35.6301 16.043 34.1525 16.043C31.6196 16 29.7199 13.9355 29.7199 11.4839Z" fill="black"/>
<path d="M38.2474 13.2903C38.2474 11.3978 39.725 10.4516 41.9202 10.4516C43.0178 10.4516 43.7777 10.6237 44.5376 10.8387V10.5376C44.5376 8.98925 43.6088 8.17204 42.0046 8.17204C41.1603 8.17204 40.4004 8.3871 39.7672 8.64516C39.6828 8.68817 39.5983 8.68817 39.5139 8.68817C39.2184 8.68817 38.9651 8.43011 38.9651 8.12903C38.9651 7.87097 39.134 7.65591 39.3028 7.56989C40.1472 7.1828 40.9915 6.96774 42.0891 6.96774C43.3133 6.96774 44.2421 7.26882 44.8753 7.91398C45.4663 8.51613 45.7618 9.33333 45.7618 10.4516V15.2258C45.7618 15.6129 45.5086 15.871 45.1286 15.871C44.7487 15.871 44.4954 15.6129 44.4954 15.2688V14.4946C43.9044 15.2688 42.8912 16 41.4136 16C39.8516 16 38.2474 15.0538 38.2474 13.2903ZM44.5798 12.6022V11.7419C43.9466 11.5699 43.1023 11.3548 42.0469 11.3548C40.4427 11.3548 39.5561 12.043 39.5561 13.1613V13.2043C39.5561 14.2796 40.5693 14.9247 41.7091 14.9247C43.2711 14.9677 44.5798 13.9785 44.5798 12.6022Z" fill="black"/>
<path d="M47.7882 4.04302C47.7882 3.69893 48.0837 3.39786 48.4214 3.39786C48.8014 3.39786 49.0547 3.69893 49.0547 4.04302V15.2258C49.0547 15.6129 48.8014 15.871 48.4214 15.871C48.0415 15.871 47.7882 15.5699 47.7882 15.2258V4.04302Z" fill="black"/>
<path d="M59.3553 15.2258C59.3553 15.6129 59.0598 15.871 58.7221 15.871C58.3421 15.871 58.0888 15.5699 58.0888 15.2258V14.0645C57.4134 15.0968 56.4002 16 54.796 16C52.7274 16 50.7011 14.3656 50.7011 11.4839V11.4409C50.7011 8.60216 52.7274 6.88173 54.796 6.88173C56.4002 6.88173 57.4134 7.74194 58.0888 8.73119V4.04302C58.0888 3.65592 58.3421 3.39786 58.7221 3.39786C59.102 3.39786 59.3553 3.69893 59.3553 4.04302V15.2258ZM52.0098 11.3979C52.0098 13.5054 53.4029 14.7957 55.0071 14.7957C56.6113 14.7957 58.0888 13.4194 58.0888 11.4409V11.3979C58.0888 9.37635 56.5691 8.04302 55.0071 8.04302C53.3607 8.04302 52.0098 9.29033 52.0098 11.3979Z" fill="black"/>
<path d="M61.4661 7.65592C61.4661 7.31184 61.7616 7.01076 62.0993 7.01076C62.4793 7.01076 62.7326 7.31184 62.7326 7.65592V15.2258C62.7326 15.6129 62.4793 15.871 62.0993 15.871C61.7194 15.871 61.4661 15.5699 61.4661 15.2258V7.65592ZM61.7616 5.59141C61.7616 5.50539 61.8038 5.41936 61.846 5.33334L62.8592 3.78495C63.0281 3.52689 63.1969 3.39786 63.4502 3.39786C63.8302 3.39786 64.3368 3.65592 64.3368 3.91399C64.3368 4.04302 64.2523 4.17205 64.0835 4.30108L62.8592 5.50539C62.6059 5.76345 62.3948 5.80646 62.0993 5.80646C61.8883 5.84947 61.7616 5.72044 61.7616 5.59141Z" fill="black"/>
<path d="M64.2523 13.2903C64.2523 11.3978 65.7299 10.4516 67.9251 10.4516C69.0227 10.4516 69.7826 10.6237 70.5425 10.8387V10.5376C70.5425 8.98925 69.6137 8.17204 68.0095 8.17204C67.1652 8.17204 66.4053 8.3871 65.7721 8.64516C65.6877 8.68817 65.6032 8.68817 65.561 8.68817C65.2655 8.68817 65.0122 8.43011 65.0122 8.12903C65.0122 7.87097 65.1811 7.65591 65.3499 7.56989C66.1942 7.1828 67.0386 6.96774 68.1362 6.96774C69.3604 6.96774 70.2892 7.26882 70.9224 7.91398C71.5134 8.51613 71.8089 9.33333 71.8089 10.4516V15.2258C71.8089 15.6129 71.5556 15.871 71.1757 15.871C70.7958 15.871 70.5425 15.6129 70.5425 15.2688V14.4946C69.9514 15.2688 68.9383 16 67.4607 16C65.8565 16 64.2523 15.0538 64.2523 13.2903ZM70.5425 12.6022V11.7419C69.9092 11.5699 69.0649 11.3548 68.0095 11.3548C66.4053 11.3548 65.5188 12.043 65.5188 13.1613V13.2043C65.5188 14.2796 66.532 14.9247 67.6718 14.9247C69.276 14.9677 70.5425 13.9785 70.5425 12.6022Z" fill="black"/>
<path d="M85.9512 15.2258C85.9512 15.6129 85.6557 15.871 85.318 15.871C84.938 15.871 84.6847 15.5699 84.6847 15.2258V14.0645C84.0093 15.0968 82.9961 16 81.3919 16C79.3233 16 77.297 14.3656 77.297 11.4839V11.4409C77.297 8.60216 79.3233 6.88173 81.3919 6.88173C82.9961 6.88173 84.0093 7.74194 84.6847 8.73119V4.04302C84.6847 3.65592 84.938 3.39786 85.318 3.39786C85.6979 3.39786 85.9512 3.69893 85.9512 4.04302V15.2258ZM78.6057 11.3979C78.6057 13.5054 79.9988 14.7957 81.603 14.7957C83.2072 14.7957 84.6847 13.4194 84.6847 11.4409V11.3979C84.6847 9.37635 83.165 8.04302 81.603 8.04302C79.9566 8.04302 78.6057 9.29033 78.6057 11.3979Z" fill="black"/>
<path d="M91.7348 16C89.3707 16 87.471 14.1505 87.471 11.4409V11.3979C87.471 8.90323 89.2018 6.83871 91.5659 6.83871C94.0988 6.83871 95.5342 8.94624 95.5342 11.2688C95.5342 11.6129 95.2387 11.871 94.9431 11.871H88.7374C88.9063 13.7634 90.215 14.8387 91.7348 14.8387C92.7902 14.8387 93.5923 14.4086 94.1833 13.8065C94.2677 13.7204 94.3943 13.6344 94.5632 13.6344C94.8587 13.6344 95.112 13.8925 95.112 14.1936C95.112 14.3656 95.0276 14.4946 94.9009 14.6237C94.1411 15.4839 93.1701 16 91.7348 16ZM94.2677 10.9677C94.1411 9.37635 93.2545 8.00001 91.5237 8.00001C90.0461 8.00001 88.9063 9.24732 88.7374 10.9677H94.2677Z" fill="black"/>
<path d="M101.318 4.64517C101.318 4.25808 101.613 3.957 101.951 3.957H106.257C107.566 3.957 108.621 4.3441 109.296 4.98926C109.761 5.50539 110.056 6.10754 110.056 6.88173V6.92474C110.056 8.47313 109.128 9.24732 108.199 9.67743C109.592 10.1075 110.69 10.9247 110.69 12.5161V12.5592C110.69 14.5807 109.001 15.785 106.468 15.785H101.951C101.613 15.785 101.318 15.4839 101.318 15.0968V4.64517ZM106.046 9.24732C107.608 9.24732 108.705 8.51614 108.705 7.1398V7.09679C108.705 5.9355 107.777 5.1613 106.13 5.1613H102.584V9.24732H106.046ZM106.51 14.6237C108.283 14.6237 109.381 13.8495 109.381 12.5161V12.4731C109.381 11.1828 108.326 10.4516 106.299 10.4516H102.584V14.6237H106.51Z" fill="black"/>
<path d="M111.703 11.4839C111.703 8.98924 113.602 6.88171 116.178 6.88171C118.753 6.88171 120.653 8.94623 120.653 11.3978V11.4409C120.653 13.8925 118.753 16 116.178 16C113.56 16 111.703 13.9355 111.703 11.4839ZM119.302 11.4839C119.302 9.59139 117.908 8.043 116.135 8.043C114.278 8.043 113.011 9.59139 113.011 11.4409V11.4839C113.011 13.3763 114.362 14.8817 116.178 14.8817C118.035 14.8387 119.302 13.3333 119.302 11.4839Z" fill="black"/>
<path d="M122.299 17.5054C122.088 17.4193 121.961 17.2043 121.961 16.9462C121.961 16.6452 122.257 16.3871 122.552 16.3871C122.679 16.3871 122.763 16.4301 122.848 16.4731C123.734 17.0753 124.79 17.4193 125.887 17.4193C127.787 17.4193 129.011 16.3441 129.011 14.3226V13.2903C128.251 14.3226 127.238 15.1398 125.634 15.1398C123.565 15.1398 121.623 13.5484 121.623 11.0538V11.0107C121.623 8.47311 123.608 6.88171 125.634 6.88171C127.238 6.88171 128.294 7.69892 128.969 8.64515V7.65591C128.969 7.31182 129.222 7.01075 129.602 7.01075C129.982 7.01075 130.235 7.31182 130.235 7.65591V14.2796C130.235 15.6129 129.856 16.6452 129.138 17.3763C128.378 18.1505 127.238 18.5376 125.887 18.5376C124.579 18.5376 123.397 18.1935 122.299 17.5054ZM129.011 11.0107C129.011 9.20429 127.491 8.043 125.845 8.043C124.241 8.043 122.89 9.20429 122.89 10.9677V11.0107C122.89 12.7742 124.283 13.9785 125.845 13.9785C127.491 13.9785 129.011 12.7742 129.011 11.0107Z" fill="black"/>
<path d="M131.755 11.4839C131.755 8.98924 133.655 6.88171 136.23 6.88171C138.805 6.88171 140.705 8.94623 140.705 11.3978V11.4409C140.705 13.8925 138.805 16 136.23 16C133.613 16 131.755 13.9355 131.755 11.4839ZM139.354 11.4839C139.354 9.59139 137.961 8.043 136.188 8.043C134.33 8.043 133.064 9.59139 133.064 11.4409V11.4839C133.064 13.3763 134.415 14.8817 136.23 14.8817C138.088 14.8387 139.354 13.3333 139.354 11.4839Z" fill="black"/>
<path d="M142.605 13.5054V8.21507H141.929C141.634 8.21507 141.38 7.95701 141.38 7.65593C141.38 7.35486 141.634 7.09679 141.929 7.09679H142.605V5.03228C142.605 4.68819 142.858 4.38712 143.238 4.38712C143.576 4.38712 143.871 4.68819 143.871 5.03228V7.09679H146.109C146.404 7.09679 146.7 7.35486 146.7 7.65593C146.7 7.95701 146.446 8.21507 146.109 8.21507H143.871V13.3333C143.871 14.4086 144.462 14.7957 145.306 14.7957C145.771 14.7957 145.982 14.6667 146.066 14.6667C146.362 14.6667 146.615 14.9247 146.615 15.2258C146.615 15.4409 146.446 15.6559 146.235 15.742C145.855 15.914 145.475 16 144.969 16C143.66 15.957 142.605 15.2688 142.605 13.5054Z" fill="black"/>
<path d="M147.375 13.2903C147.375 11.3979 148.853 10.4516 151.048 10.4516C152.145 10.4516 152.905 10.6237 153.665 10.8387V10.5376C153.665 8.98926 152.736 8.17205 151.132 8.17205C150.288 8.17205 149.528 8.38711 148.895 8.64517C148.81 8.68818 148.726 8.68818 148.684 8.68818C148.388 8.68818 148.135 8.43012 148.135 8.12904C148.135 7.87098 148.304 7.65592 148.473 7.5699C149.317 7.1828 150.161 6.96775 151.259 6.96775C152.483 6.96775 153.412 7.26883 154.045 7.91399C154.636 8.51614 154.932 9.33334 154.932 10.4516V15.2258C154.932 15.6129 154.678 15.871 154.298 15.871C153.918 15.871 153.665 15.6129 153.665 15.2688V14.4946C153.074 15.2688 152.061 16 150.583 16C148.979 16 147.375 15.0538 147.375 13.2903ZM153.665 12.6022V11.7419C153.032 11.5699 152.188 11.3548 151.132 11.3548C149.528 11.3548 148.642 12.043 148.642 13.1613V13.2043C148.642 14.2796 149.655 14.9247 150.795 14.9247C152.399 14.9678 153.665 13.9785 153.665 12.6022ZM151.048 5.59141C151.048 5.50538 151.09 5.41936 151.132 5.33334L152.145 3.78495C152.314 3.52689 152.483 3.39786 152.736 3.39786C153.116 3.39786 153.623 3.65592 153.623 3.91399C153.623 4.04302 153.539 4.17205 153.37 4.30108L152.145 5.50538C151.892 5.76345 151.681 5.80646 151.386 5.80646C151.174 5.84947 151.048 5.72044 151.048 5.59141Z" fill="black"/>
</svg>
