<svg width="30" height="25" viewBox="0 0 30 25" fill="none" xmlns="http://www.w3.org/2000/svg">
<path d="M14.5833 0C6.52376 0 1.51407e-10 6.38929 1.51407e-10 14.2857V16.9643C-4.36235e-06 17.2959 0.0942641 17.621 0.272242 17.9031C0.45022 18.1852 0.704876 18.4132 1.00767 18.5615L1.82702 18.9628C1.94158 22.316 4.75217 25 8.20312 25H9.57031C10.3254 25 10.9375 24.4004 10.9375 23.6607V13.8393C10.9375 13.0996 10.3254 12.5 9.57031 12.5H8.20312C6.41769 12.5 4.8039 13.2187 3.64583 14.3765V14.2857C3.64583 8.37785 8.55238 3.57143 14.5833 3.57143C20.6143 3.57143 25.5208 8.37785 25.5208 14.2857V14.3765C24.3628 13.2187 22.749 12.5 20.9635 12.5H19.5964C18.8413 12.5 18.2292 13.0996 18.2292 13.8393V23.6607C18.2292 24.4004 18.8413 25 19.5964 25H20.9635C24.4145 25 27.2251 22.316 27.3396 18.9628L28.1589 18.5615C28.4617 18.4132 28.7164 18.1852 28.8944 17.9031C29.0724 17.621 29.1667 17.2959 29.1667 16.9643V14.2857C29.1667 6.39068 22.6443 0 14.5833 0Z" fill="#FF4284"/>
</svg>
