<svg width="122" height="45" viewBox="0 0 122 45" fill="none" xmlns="http://www.w3.org/2000/svg">
<path d="M63.2 17.2C63.2 16.9 63.5 16.6 63.8 16.6H65.8C66.4 16.6 66.9 16.8 67.2 17.1C67.5 17.4 67.6 17.7 67.6 18C67.6 18.6 67.3 19 66.9 19.2C67.5 19.4 67.9 19.8 67.9 20.6C67.9 21.6 67.1 22.1 65.8 22.1H63.8C63.5 22.1 63.2 21.8 63.2 21.5V17.2ZM65.5 18.8C66 18.8 66.4 18.6 66.4 18.2C66.4 17.8 66.1 17.6 65.6 17.6H64.4V18.8H65.5ZM65.8 21C66.3 21 66.7 20.8 66.7 20.4C66.7 20 66.4 19.8 65.8 19.8H64.4V21H65.8Z" fill="white"/>
<path d="M68.4 18.5C68.4 16.4 70 14.7 72.3 14.7C74.5 14.7 76.1 16.4 76.1 18.4C76.1 20.5 74.5 22.1 72.2 22.1C70 22.2 68.4 20.6 68.4 18.5ZM74.5 18.5C74.5 17.2 73.6 16.2 72.3 16.2C71 16.2 70.1 17.2 70.1 18.5C70.1 19.7 71 20.8 72.3 20.8C73.6 20.8 74.5 19.7 74.5 18.5Z" fill="white"/>
<path d="M76.9 17.6C76.9 15 78.9 12.9 81.7 12.9C83.1 12.9 84 13.2 84.8 13.8C85 13.9 85.2 14.2 85.2 14.6C85.2 15.1 84.8 15.6 84.2 15.6C83.9 15.6 83.7 15.5 83.6 15.4C83.1 15 82.5 14.8 81.6 14.8C80.1 14.8 79 16.1 79 17.6C79 19.3 80.1 20.5 81.8 20.5C82.5 20.5 83.2 20.3 83.7 20V18.7H82.3C81.8 18.7 81.4 18.3 81.4 17.8C81.4 17.3 81.8 16.9 82.3 16.9H84.6C85.2 16.9 85.6 17.3 85.6 17.9V20.1C85.6 20.7 85.4 21.1 84.9 21.4C84.2 21.9 83.1 22.3 81.7 22.3C78.9 22.3 76.9 20.3 76.9 17.6Z" fill="white"/>
<path d="M86.2 16.5C86.2 13.3 88.7 10.7 92.2 10.7C95.7 10.7 98.1 13.3 98.1 16.4C98.1 19.6 95.6 22.2 92.1 22.2C88.6 22.3 86.2 19.7 86.2 16.5ZM95.5 16.5C95.5 14.6 94.1 13 92.1 13C90.1 13 88.7 14.6 88.7 16.5C88.7 18.4 90.1 20 92.1 20C94.1 20 95.5 18.5 95.5 16.5Z" fill="white"/>
<path d="M101 11.4H98.2C97.5 11.4 96.8 10.8 96.8 10C96.8 9.30004 97.4 8.60004 98.2 8.60004H106.8C107.5 8.60004 108.2 9.20004 108.2 10C108.2 10.7 107.6 11.4 106.8 11.4H104V20.7C104 21.5 103.3 22.2 102.5 22.2C101.7 22.2 101 21.6 101 20.7V11.4Z" fill="white"/>
<path d="M106.5 19.9L112 7.50001C112.4 6.60001 113.1 6.10001 114 6.10001H114.2C115.1 6.10001 115.8 6.60001 116.2 7.50001L121.7 19.9C121.8 20.1 121.9 20.4 121.9 20.6C121.9 21.5 121.2 22.3 120.3 22.3C119.5 22.3 119 21.8 118.6 21.1L117.5 18.6H110.6L109.5 21.2C109.2 21.9 108.6 22.3 107.9 22.3C107 22.3 106.3 21.6 106.3 20.7C106.3 20.4 106.4 20.1 106.5 19.9ZM116.2 15.5L114 10.3L111.8 15.5H116.2ZM113.1 4.50001C113.1 4.30001 113.2 4.10001 113.3 3.90001L114.5 2.00001C114.8 1.50001 115.2 1.20001 115.8 1.20001C116.6 1.20001 117.7 1.70001 117.7 2.20001C117.7 2.50001 117.5 2.80001 117.2 3.00001L115.8 4.30001C115.1 4.90001 114.6 5.00001 113.8 5.00001C113.5 5.00001 113.1 4.80001 113.1 4.50001Z" fill="white"/>
<path d="M63.2 25.6C63.2 24.9 63.8 24.3 64.5 24.3H64.8C65.3 24.3 65.7 24.6 66 25L69.1 30L72.2 24.9001C72.5 24.5001 72.8 24.3 73.3 24.3H73.6C74.3 24.3 74.9 24.9 74.9 25.6V34.9001C74.9 35.6001 74.3 36.2001 73.6 36.2001C72.9 36.2001 72.3 35.6001 72.3 34.9001V29L70.1 32.5C69.8 32.9 69.5 33.1 69 33.1C68.5 33.1 68.2 32.8 67.9 32.5L65.7 29.1V34.9001C65.7 35.6001 65.1 36.1 64.4 36.1C63.7 36.1 63.2 35.6001 63.2 34.9001V25.6Z" fill="white"/>
<path d="M77.7 34.7001V25.6C77.7 24.9 78.3 24.3 79 24.3H85.5C86.1 24.3 86.6 24.8001 86.6 25.4001C86.6 26.0001 86.1 26.5 85.5 26.5H80.2V29H84.6C85.2 29 85.7 29.5 85.7 30.1C85.7 30.7 85.2 31.2001 84.6 31.2001H80.2V33.6H85.5C86.1 33.6 86.6 34.1 86.6 34.7001C86.6 35.3001 86.1 35.8 85.5 35.8H79C78.2 36 77.7 35.5001 77.7 34.7001Z" fill="white"/>
<path d="M88.4 35.2C88.1 35 87.9 34.6 87.9 34.2C87.9 33.5 88.4 33 89.1 33C89.4 33 89.6 33.1 89.9 33.3C90.4 33.7 90.9 33.9 91.4 33.9C92.4 33.9 93 33.3 93 32V25.7C93 25 93.6 24.4 94.3 24.4C95 24.4 95.6 25 95.6 25.7V32C95.6 33.4 95.2 34.4 94.5 35.1C93.8 35.8 92.7 36.2 91.5 36.2C90.1 36.2 89.1 35.7 88.4 35.2Z" fill="white"/>
<path d="M97.7 30.2C97.7 26.9 100.3 24.1 103.9 24.1C107.5 24.1 110.1 26.8 110.1 30.1C110.1 33.4 107.5 36.1 103.9 36.1C100.2 36.2 97.7 33.5 97.7 30.2ZM107.4 30.2C107.4 28.2 105.9 26.5 103.9 26.5C101.8 26.5 100.4 28.1 100.4 30.1C100.4 32.1 101.9 33.8 103.9 33.8C105.9 33.9 107.4 32.2 107.4 30.2Z" fill="white"/>
<path d="M112.3 25.7C112.3 25 112.9 24.4 113.6 24.4H117.6C119.1 24.4 120.2 24.8 121 25.6C121.6 26.2 122 27.2 122 28.3C122 30.1 121.1 31.3 119.7 31.8L121.5 34C121.8 34.3 121.9 34.6 121.9 35C121.9 35.7 121.3 36.2 120.7 36.2C120.1 36.2 119.7 35.9 119.4 35.5L116.9 32.3H114.9V34.8C114.9 35.5 114.3 36.1 113.6 36.1C112.9 36.1 112.3 35.5 112.3 34.8V25.7ZM117.5 30C118.7 30 119.5 29.3 119.5 28.4C119.5 27.3 118.7 26.7 117.5 26.7H115V30H117.5Z" fill="white"/>
<path d="M63.2 38.9C63.2 38.5 63.5 38.2 63.9 38.2H65.7C67.1 38.2 68 39.1 68 40.3C68 41.7 66.9 42.4 65.5 42.4H64.5V43.6C64.5 44 64.2 44.3 63.8 44.3C63.4 44.3 63.1 44 63.1 43.6V38.9H63.2ZM65.6 41.3C66.3 41.3 66.7 40.9 66.7 40.4C66.7 39.8 66.3 39.5 65.6 39.5H64.6V41.4H65.6V41.3Z" fill="white"/>
<path d="M68.2 43.4L70.3 38.6C70.4 38.3 70.7 38.1 71.1 38.1H71.2C71.6 38.1 71.8 38.3 72 38.6L74.1 43.4C74.1 43.5 74.2 43.6 74.2 43.7C74.2 44.1 73.9 44.3 73.6 44.3C73.3 44.3 73.1 44.1 73 43.8L72.6 42.8H69.9L69.5 43.8C69.4 44.1 69.2 44.2 68.9 44.2C68.6 44.2 68.3 43.9 68.3 43.6C68.1 43.6 68.2 43.5 68.2 43.4ZM72 41.7L71.2 39.7L70.4 41.7H72Z" fill="white"/>
<path d="M75.2 38.9C75.2 38.5 75.5 38.2 75.9 38.2H78C78.8 38.2 79.4 38.4 79.8 38.8C80.1 39.1 80.3 39.6 80.3 40.2C80.3 41.2 79.8 41.7 79.1 42L80 43.1C80.1 43.3 80.2 43.4 80.2 43.6C80.2 44 79.9 44.2 79.6 44.2C79.3 44.2 79.1 44.1 78.9 43.9L77.6 42.3H76.5V43.6C76.5 44 76.2 44.3 75.8 44.3C75.4 44.3 75.1 44 75.1 43.6V38.9H75.2ZM77.9 41.2C78.6 41.2 78.9 40.9 78.9 40.3C78.9 39.7 78.5 39.4 77.9 39.4H76.6V41.1H77.9V41.2Z" fill="white"/>
<path d="M81.1 43.4L83.2 38.6C83.3 38.3 83.6 38.1 84 38.1H84.1C84.5 38.1 84.7 38.3 84.9 38.6L87 43.4C87 43.5 87.1 43.6 87.1 43.7C87.1 44.1 86.8 44.3 86.5 44.3C86.2 44.3 86 44.1 85.9 43.8L85.5 42.8H82.8L82.4 43.8C82.3 44.1 82.1 44.2 81.8 44.2C81.5 44.2 81.2 43.9 81.2 43.6C81 43.6 81.1 43.5 81.1 43.4ZM84.9 41.7L84.1 39.7L83.3 41.7H84.9Z" fill="white"/>
<path d="M92.1 39.4H90.8C90.5 39.4 90.2 39.1 90.2 38.8C90.2 38.5 90.5 38.2 90.8 38.2H94.7C95 38.2 95.3 38.5 95.3 38.8C95.3 39.1 95 39.4 94.7 39.4H93.4V43.6C93.4 44 93.1 44.3 92.7 44.3C92.3 44.3 92 44 92 43.6V39.4H92.1Z" fill="white"/>
<path d="M95.8 41.3C95.8 39.6 97.2 38.1 99 38.1C100.9 38.1 102.2 39.5 102.2 41.2C102.2 42.9 100.8 44.3 99 44.3C97.1 44.4 95.8 43 95.8 41.3ZM100.8 41.3C100.8 40.2 100 39.4 99 39.4C97.9 39.4 97.2 40.2 97.2 41.3C97.2 42.3 98 43.2 99 43.2C100.1 43.1 100.8 42.3 100.8 41.3Z" fill="white"/>
<path d="M103.4 38.9C103.4 38.5 103.7 38.2 104.1 38.2H105.8C107.7 38.2 109 39.5 109 41.2C109 42.9 107.7 44.2 105.8 44.2H104.1C103.7 44.2 103.4 43.9 103.4 43.5V38.9ZM105.8 43.1C106.9 43.1 107.6 42.4 107.6 41.3C107.6 40.2 106.9 39.5 105.8 39.5H104.8V43.2H105.8V43.1Z" fill="white"/>
<path d="M109.9 41.3C109.9 39.6 111.3 38.1 113.1 38.1C115 38.1 116.3 39.5 116.3 41.2C116.3 42.9 114.9 44.3 113.1 44.3C111.3 44.4 109.9 43 109.9 41.3ZM115 41.3C115 40.2 114.2 39.4 113.2 39.4C112.1 39.4 111.4 40.2 111.4 41.3C111.4 42.3 112.2 43.2 113.2 43.2C114.2 43.1 115 42.3 115 41.3Z" fill="white"/>
<path d="M117.4 43.6C117.3 43.5 117.1 43.3 117.1 43.1C117.1 42.8 117.4 42.5 117.7 42.5C117.9 42.5 118 42.6 118.1 42.6C118.6 42.9 119.1 43.1 119.7 43.1C120.2 43.1 120.6 42.9 120.6 42.5C120.6 42.2 120.4 42 119.4 41.7C118.2 41.4 117.4 41.1 117.4 39.8C117.4 38.7 118.3 38 119.5 38C120.2 38 120.9 38.2 121.4 38.5C121.5 38.6 121.7 38.8 121.7 39C121.7 39.3 121.4 39.6 121.1 39.6C121 39.6 120.9 39.6 120.8 39.5C120.4 39.2 119.9 39.1 119.5 39.1C119 39.1 118.7 39.3 118.7 39.6C118.7 40 119 40.1 120 40.4C121.2 40.7 121.9 41.2 121.9 42.2C121.9 43.4 121 44.1 119.7 44.1C118.9 44.4 118.1 44.1 117.4 43.6Z" fill="white"/>
<path d="M53.5 1.10004H52.7V44.4H53.5V1.10004Z" fill="white"/>
<path d="M3.7 38H2.89999L2.59999 37.2001H1.09999L0.800003 38H0L1.39999 34.3H2.2L3.7 38ZM2.39999 36.6L1.89999 35.2001L1.39999 36.6H2.39999Z" fill="white"/>
<path d="M3.89999 38V34.4H4.7V37.4H6.5V38H3.89999Z" fill="white"/>
<path d="M9.20001 36.7001L9.90001 36.9001C9.80001 37.3001 9.60001 37.6 9.40001 37.8C9.10001 38 8.80001 38.1 8.40001 38.1C7.90001 38.1 7.50001 37.9 7.20001 37.6C6.90001 37.3 6.70001 36.8001 6.70001 36.2001C6.70001 35.6001 6.90001 35.1 7.20001 34.8C7.50001 34.5 7.90001 34.3 8.40001 34.3C8.90001 34.3 9.20002 34.4001 9.50002 34.7001C9.70002 34.9001 9.80001 35.1001 9.90001 35.4001L9.20001 35.6C9.20001 35.4 9.10001 35.3 8.90001 35.1C8.80001 35 8.60001 34.9001 8.40001 34.9001C8.10001 34.9001 7.90001 35.0001 7.70001 35.2001C7.50001 35.4001 7.40001 35.7 7.40001 36.1C7.40001 36.6 7.50001 36.9 7.70001 37.1C7.90001 37.3 8.10001 37.4001 8.40001 37.4001C8.60001 37.4001 8.80001 37.3001 8.90001 37.2001C9.00001 37.2001 9.10001 37.0001 9.20001 36.7001Z" fill="white"/>
<path d="M13.7 38H12.9L12.6 37.2001H11.1L10.8 38H10L11.4 34.3H12.2L13.7 38ZM12.3 36.6L11.8 35.2001L11.3 36.6H12.3Z" fill="white"/>
<path d="M13.9 38V34.4H14.6V37.4H16.4V38H13.9Z" fill="white"/>
<path d="M16.8 34.4H18.2C18.5 34.4 18.7 34.4 18.9 34.5C19.1 34.6 19.3 34.7 19.5 34.8C19.7 35 19.8 35.2 19.9 35.4C20 35.6 20 35.9 20 36.3C20 36.6 20 36.9 19.9 37.1C19.8 37.4 19.7 37.6 19.5 37.7C19.4 37.8 19.2 37.9 19 38C18.8 38.1 18.6 38.1 18.3 38.1H16.9V34.4H16.8ZM17.5 35V37.4H18.1C18.3 37.4 18.5 37.4 18.5 37.4C18.6 37.4 18.7 37.3 18.8 37.3C18.9 37.2 18.9 37.1 19 36.9C19 36.7 19.1 36.5 19.1 36.2C19.1 35.9 19.1 35.7 19 35.5C18.9 35.4 18.9 35.2 18.8 35.1C18.7 35 18.6 35 18.5 34.9C18.4 34.9 18.2 34.9 17.9 34.9H17.5V35Z" fill="white"/>
<path d="M20.4 34L20.7 33.3H21.5L20.8 34H20.4ZM20.2 34.4001H20.9V38H20.2V34.4001Z" fill="white"/>
<path d="M24.8 38H24L23.7 37.2001H22.2L21.9 38H21.1L22.5 34.3H23.3L24.8 38ZM23.4 36.6L22.9 35.2001L22.4 36.6H23.4Z" fill="white"/>
<path d="M26 38V34.4H27.1L27.7 36.9L28.4 34.4H29.5V38H28.8V35.1L28.1 38H27.4L26.7 35.1V38H26Z" fill="white"/>
<path d="M33.4 38H32.6L32.3 37.2001H30.8L30.5 38H29.7L31.1 34.3H31.9L33.4 38ZM32 36.6L31.5 35.2001L31 36.6H32Z" fill="white"/>
<path d="M34 38V36.5L32.7 34.4H33.6L34.4 35.8L35.3 34.4H36.1L34.8 36.5V38H34Z" fill="white"/>
<path d="M36.1 36.2C36.1 35.8 36.2 35.5 36.3 35.3C36.4 35.1 36.5 34.9 36.6 34.8C36.7 34.6 36.9 34.5 37.1 34.5C37.3 34.4 37.6 34.4 37.9 34.4C38.4 34.4 38.9 34.6 39.2 34.9C39.5 35.2 39.7 35.7 39.7 36.3C39.7 36.9 39.5 37.4 39.2 37.7C38.9 38 38.4 38.2 37.9 38.2C37.4 38.2 36.9 38 36.6 37.7C36.3 37.3 36.1 36.8 36.1 36.2ZM36.9 36.2C36.9 36.6 37 36.9 37.2 37.1C37.4 37.3 37.6 37.4 37.9 37.4C38.2 37.4 38.4 37.3 38.6 37.1C38.8 36.9 38.9 36.6 38.9 36.1C38.9 35.7 38.8 35.4 38.6 35.2C38.4 35 38.2 34.9 37.9 34.9C37.6 34.9 37.3 35 37.2 35.2C37 35.5 36.9 35.8 36.9 36.2Z" fill="white"/>
<path d="M40.1 38V34.3H41.7C42.1 34.3 42.4 34.3001 42.6 34.4001C42.8 34.5001 42.9 34.6 43 34.8C43.1 35 43.2 35.2001 43.2 35.4001C43.2 35.7001 43.1 35.9 43 36.1C42.8 36.3 42.6 36.4001 42.3 36.4001C42.5 36.5001 42.6 36.6001 42.7 36.7001C42.8 36.8001 42.9 37 43.1 37.3L43.6 38H42.7L42.2 37.2001C42 36.9001 41.9 36.7001 41.8 36.7001C41.7 36.6001 41.7 36.6 41.6 36.5C41.5 36.5 41.4 36.5 41.2 36.5H41.1V38H40.1ZM40.8 35.9001H41.3C41.7 35.9001 41.9 35.9001 42 35.9001C42.1 35.9001 42.2 35.8001 42.2 35.7001C42.3 35.6001 42.3 35.5001 42.3 35.4001C42.3 35.3001 42.3 35.2 42.2 35.1C42.1 35 42 35 41.9 35C41.8 35 41.7 35 41.4 35H40.8V35.9001Z" fill="white"/>
<path d="M36.4 43.3H35.7V44H36.4V43.3Z" fill="white"/>
<path d="M2.39998 40.4H3.69998C3.99998 40.4 4.19998 40.4 4.39998 40.5C4.59998 40.6 4.79998 40.7 4.89998 40.8C5.09998 41 5.19998 41.2 5.19998 41.4C5.29998 41.6 5.29999 41.9 5.29999 42.3C5.29999 42.6 5.29998 42.9 5.19998 43.1C5.09998 43.4 4.99999 43.6 4.79999 43.7C4.69999 43.8 4.49999 43.9 4.29999 44C4.09999 44.1 3.89998 44.1 3.69998 44.1H2.29999V40.4H2.39998ZM3.09998 41V43.4H3.59998C3.79998 43.4 3.99998 43.4 3.99998 43.4C4.09998 43.4 4.19999 43.3 4.29999 43.3C4.39999 43.2 4.39998 43.1 4.49998 43C4.49998 42.8 4.59998 42.6 4.59998 42.3C4.59998 42 4.59998 41.8 4.49998 41.7C4.39998 41.6 4.39999 41.4 4.29999 41.3C4.19999 41.2 4.09998 41.2 3.99998 41.1C3.89998 41.1 3.69998 41.1 3.39998 41.1H3.09998V41Z" fill="white"/>
<path d="M5.79999 44V40.4H8.49998V41H6.59998V41.8H8.39998V42.4H6.59998V43.4H8.59998V44H5.79999Z" fill="white"/>
<path d="M10.2 40.4H11.6C11.9 40.4 12.1 40.4 12.2 40.4C12.3 40.4 12.5 40.5 12.6 40.5C12.7 40.6 12.8 40.7 12.9 40.8C13 40.9 13 41.1 13 41.2C13 41.4 13 41.5 12.9 41.7C12.8 41.8 12.7 41.9 12.5 42C12.7 42.1 12.9 42.2 13 42.3C13.1 42.5 13.2 42.6 13.2 42.8C13.2 43 13.2 43.1 13.1 43.3C13 43.5 12.9 43.6 12.8 43.7C12.7 43.8 12.5 43.9 12.3 43.9C12.2 43.9 11.9 43.9 11.4 43.9H10.2V40.4ZM10.9 41V41.8H11.4C11.7 41.8 11.9 41.8 11.9 41.8C12 41.8 12.1 41.7 12.2 41.7C12.3 41.6 12.3 41.5 12.3 41.4C12.3 41.3 12.3 41.2 12.2 41.1C12.1 41 12 41 11.9 41C11.8 41 11.6 41 11.3 41H10.9ZM10.9 42.4V43.4H11.6C11.9 43.4 12 43.4 12.1 43.4C12.2 43.4 12.3 43.3 12.4 43.3C12.5 43.2 12.5 43.1 12.5 43C12.5 42.9 12.5 42.8 12.4 42.7C12.3 42.6 12.3 42.6 12.2 42.5C12.1 42.5 11.9 42.4 11.6 42.4H10.9Z" fill="white"/>
<path d="M13.5 42.2C13.5 41.8 13.6 41.5 13.7 41.3C13.8 41.1 13.9 41 14 40.8C14.1 40.7 14.3 40.5 14.5 40.5C14.7 40.4 15 40.4 15.3 40.4C15.8 40.4 16.3 40.6 16.6 40.9C16.9 41.2 17.1 41.7 17.1 42.3C17.1 42.9 16.9 43.3 16.6 43.7C16.3 44 15.9 44.2 15.3 44.2C14.8 44.2 14.3 44 14 43.7C13.6 43.2 13.5 42.8 13.5 42.2ZM14.2 42.2C14.2 42.6 14.3 42.9 14.5 43.1C14.7 43.3 14.9 43.4 15.2 43.4C15.5 43.4 15.7 43.3 15.9 43.1C16.1 42.9 16.2 42.6 16.2 42.2C16.2 41.8 16.1 41.5 15.9 41.3C15.7 41.1 15.5 41 15.2 41C14.9 41 14.7 41.1 14.5 41.3C14.3 41.4 14.2 41.7 14.2 42.2Z" fill="white"/>
<path d="M19 42.7001V42.0001H20.6V43.4001C20.4 43.5001 20.2 43.7001 19.9 43.8001C19.6 43.9001 19.3 44.0001 19 44.0001C18.6 44.0001 18.3 43.9001 18 43.8001C17.7 43.6001 17.5 43.4001 17.4 43.1001C17.3 42.8001 17.2 42.5001 17.2 42.1001C17.2 41.7001 17.3 41.4001 17.4 41.1001C17.6 40.8001 17.8 40.6001 18.1 40.4001C18.3 40.3001 18.6 40.2001 19 40.2001C19.4 40.2001 19.8 40.3001 20.1 40.5001C20.4 40.7001 20.5 40.9001 20.6 41.3001L19.9 41.4001C19.9 41.2001 19.8 41.1001 19.6 41.0001C19.5 40.9001 19.3 40.8001 19.1 40.8001C18.8 40.8001 18.5 40.9001 18.3 41.1001C18.1 41.3001 18 41.6001 18 42.0001C18 42.4001 18.1 42.7001 18.3 43.0001C18.5 43.2001 18.7 43.3001 19 43.3001C19.2 43.3001 19.3 43.3001 19.5 43.2001C19.7 43.1001 19.8 43.1001 19.9 43.0001V42.5001H19V42.7001Z" fill="white"/>
<path d="M20.9 42.2C20.9 41.8 21 41.5 21.1 41.3C21.2 41.1 21.3 41 21.4 40.8C21.5 40.7 21.7 40.5 21.9 40.5C22.1 40.4 22.4 40.4 22.7 40.4C23.2 40.4 23.7 40.6 24 40.9C24.3 41.2 24.5 41.7 24.5 42.3C24.5 42.9 24.3 43.3 24 43.7C23.7 44 23.3 44.2 22.7 44.2C22.2 44.2 21.7 44 21.4 43.7C21.1 43.2 20.9 42.8 20.9 42.2ZM21.7 42.2C21.7 42.6 21.8 42.9 22 43.1C22.2 43.3 22.4 43.4 22.7 43.4C23 43.4 23.2 43.3 23.4 43.1C23.6 42.9 23.7 42.6 23.7 42.2C23.7 41.8 23.6 41.5 23.4 41.3C23.2 41.1 23 41 22.7 41C22.4 41 22.2 41.1 22 41.3C21.8 41.4 21.7 41.7 21.7 42.2Z" fill="white"/>
<path d="M25.6 44V41H24.5V40.4H27.4V41H26.3V44H25.6Z" fill="white"/>
<path d="M30.9 44H30.1L29.8 43.2001H28.4L28.1 44H27.3L28.7 40.4001H29.5L30.9 44ZM29.6 42.5L29.1 41.2001L28.6 42.5H29.6ZM28.8 40L29.1 39.3H29.9L29.2 40H28.8Z" fill="white"/>
<path d="M32.3 40.4H33.6C33.9 40.4 34.1 40.4 34.3 40.5C34.5 40.6 34.7 40.7 34.8 40.8C34.9 41 35.1 41.2 35.1 41.4C35.2 41.6 35.2 41.9 35.2 42.3C35.2 42.6 35.2 42.9 35.1 43.1C35 43.4 34.9 43.6 34.7 43.7C34.6 43.8 34.4 43.9 34.2 44C34 44.1 33.8 44.1 33.6 44.1H32.2V40.4H32.3ZM33 41V43.4H33.5C33.7 43.4 33.8 43.4 33.9 43.4C34 43.4 34.1 43.3 34.2 43.3C34.3 43.2 34.3 43.1 34.4 43C34.4 42.8 34.5 42.6 34.5 42.3C34.5 42 34.5 41.8 34.4 41.7C34.3 41.6 34.3 41.4 34.2 41.3C34.1 41.2 34 41.2 33.9 41.1C33.8 41.1 33.6 41.1 33.3 41.1H33V41Z" fill="white"/>
<path d="M39.2 42.6L39.9 42.8C39.8 43.2 39.6 43.5001 39.4 43.7001C39.1 43.9001 38.8 44 38.4 44C37.9 44 37.5 43.8 37.2 43.5C36.9 43.2 36.7 42.7001 36.7 42.2001C36.7 41.6001 36.9 41.1 37.2 40.8C37.5 40.5 37.9 40.3 38.4 40.3C38.8 40.3 39.2 40.4001 39.5 40.7001C39.7 40.9001 39.8 41.1001 39.9 41.4001L39.2 41.6C39.2 41.4 39.1 41.3001 38.9 41.2001C38.8 41.1001 38.6 41 38.4 41C38.1 41 37.9 41.1 37.7 41.3C37.5 41.5 37.5 41.8001 37.5 42.2001C37.5 42.7001 37.6 43.0001 37.7 43.2001C37.9 43.4001 38.1 43.5 38.3 43.5C38.5 43.5 38.7 43.4 38.8 43.3C39 43.1 39.1 42.9 39.2 42.6Z" fill="white"/>
<path d="M41 43.3H40.3V44H41V43.3Z" fill="white"/>
<path d="M14.6 18.3C14.7 18.4 15 18.2 15 18.1C14.9 17.9 15 17.5 15.3 17.5V17.4C15.3 17.4 14.8 17.4001 14.7 17.7001C14.7 17.7001 14.3 17.3 14.2 17.3C14.1 17.4 14.3 17.9 14.3 17.9C14 17.8 13.8 18.3 13.8 18.3L13.9 18.4C14 18 14.5 18.1 14.6 18.3Z" fill="white"/>
<path d="M18.6 21.7C18.3 22 18.2 22.4 18.2 22.8C18.6 22.8 18.9 22.6 19.2 22.3C19.5 22 19.6 21.6 19.6 21.2C19.2 21.2 18.9 21.4 18.6 21.7Z" fill="white"/>
<path d="M29 17.8C29 17.8 29.2 17.3 29.1 17.2C29 17.2 28.6 17.6 28.6 17.6C28.5 17.3 28 17.3 28 17.3V17.4C28.3 17.4 28.4 17.9 28.3 18C28.3 18.1 28.6 18.3 28.7 18.2C28.8 18 29.2 17.9 29.4 18.2L29.5 18.1C29.5 18.2 29.3 17.8 29 17.8Z" fill="white"/>
<path d="M24.7 21.7001C24.4 21.4001 24 21.3 23.7 21.3C23.7 21.7 23.8 22.1001 24.1 22.4001C24.4 22.7001 24.7 22.9001 25.1 22.9001C25.1 22.4001 24.9 22.0001 24.7 21.7001Z" fill="white"/>
<path d="M28.4 18.2C27.7 17.8 26.8 17.9 26.4 18.4C26 19 26.3 19.7 27 20.2C26.5 20.2 25.9 19.6 25.9 19.6C25.6 20.1 26.1 20.4 26.5 20.5C26.4 20.5 26.4 20.6 26.3 20.6C25.9 20.5 25.8 20.7 25.8 20.7C25.7 20.7 24.9 19.8 24.3 19.2L24.8 19.1C24.4 18.2 23.3 18 22.6 17.4C22.1 17 22.7 16.8 22.8 16.9C24.2 18 25.4 17.3 25.4 17.3C24.4 17 24 15.9 24 15.9C26 17 27.5 15.7 27.5 15.7C26.2 15.9 25.2 14.7 25.2 14.7C27.2 15.2 28.7 13.8 28.7 13.8C27.9 13.9 26.1 13.1 26.1 13.1C29.1 13 29.4 10.9 29.4 10.9C28.6 11.4 26.4 11.2 26.4 11.2C29.5 10.1 29.3 7.5 29.3 7.5C28.6 8.5 25.6 9.4 25.6 9.4C24.8 9.7 24.1 10.4 24.1 11.2C24.1 11.6 23.7 11.8 23.4 11.8C22.6 11.8 22.6 10.6 22.6 10.1C22.6 9.3 22.6 8.3 22 8.3H20.8C20.6 8.3 20.2 8.3 20.1 8.5C19.8 8.9 19.8 9.8 20 9.6C20 9.6 20.5 9.5 20.8 9.6C21.2 9.7 20.9 10.9 20.9 11.2C20.9 11.5 20.6 11.9 20.2 11.9C19.8 11.9 19.5 11.6 19.5 11.3C19.5 10.4 18.8 9.7 18.1 9.5C18.1 9.5 15 8.5 14.4 7.6C14.4 7.6 14.2 10.2 17.3 11.3C17.3 11.3 15.1 11.5 14.2 10.9C14.2 10.9 14.6 13.1 17.6 13.2C17.6 13.2 15.6 13.9 14.9 13.8C14.9 13.8 16.3 15.4 18.4 14.9C18.4 14.9 17.2 15.9 15.9 15.7C15.9 15.7 17.4 17 19.4 15.9C19.4 15.9 19 16.9 18 17.2C18 17.2 19.2 18 20.6 16.8C20.8 16.6 21.3 16.8 20.8 17.3C20 17.9 19 18 18.5 19L19.1 19.1C18.5 19.7 17.6 20.6 17.6 20.6C17.6 20.6 17.5 20.4 17.1 20.5L17 20.4C17.4 20.3 17.9 20 17.6 19.5C17.6 19.5 17 20.2 16.5 20.1C17.2 19.6 17.4 18.9 17.1 18.3C16.7 17.7 15.8 17.6 15.1 18.1C14.4 18.5 14.1 19.4 14.4 19.9C14.7 20.4 15.5 20.6 16.3 20.2C16 20.6 15.4 20.8 15.2 20.9C15.2 20.9 15.6 21.7 16.5 20.6C16.6 20.6 16.6 20.7 16.6 20.7C16.4 20.9 16.3 21.2 16.5 21.4C16.5 21.4 16.4 21.9 17 21.9C17 21.9 17.2 22.2 17.6 22C17.9 22.7 17.8 23.4 17.8 23.7H18.6C18.5 23.4 18.5 22.3 17.9 21.3C18 21.2 18.1 21.1 18 20.9C18 20.9 19.1 20.2 19.9 19.7L20 20.2C20.3 19.8 20.7 19.6 21.1 19.4C20.6 20.1 20.3 20.9 20.5 21.9C20.5 21.9 20.6 21.5 21.3 21.4C21.3 21.4 20.4 22.5 21.9 24.7C23.4 22.5 22.5 21.4 22.5 21.4C23.2 21.5 23.3 21.9 23.3 21.9C23.4 20.8 23.2 20 22.6 19.3C23.1 19.4 23.5 19.7 23.8 20.1L23.9 19.6C24.7 20.1 25.8 20.8 25.8 20.8C25.7 20.9 25.8 21.1 25.9 21.2C25.3 22.2 25.3 23.2 25.2 23.5H26C26.1 23.1 26 22.5 26.2 21.8C26.6 22 26.8 21.6 26.8 21.6C27.4 21.6 27.3 21.1 27.3 21.1C27.5 21 27.4 20.7 27.2 20.5C27.3 20.5 27.3 20.4 27.4 20.4C28.3 21.4 28.7 20.7 28.7 20.7C28.5 20.6 27.9 20.5 27.6 20C28.3 20.4 29.1 20.3 29.5 19.7C29.4 19.5 29.1 18.7 28.4 18.2ZM16.1 20.2C15.8 20.4 15.3 20.3 14.9 19.7C14.5 19.1 14.5 18.5 14.8 18.3C15.1 18.1 15.7 18.4 16 19C16.5 19.5 16.4 20 16.1 20.2ZM21.2 9.4C21 9.4 20.9 9.3 20.9 9.1C20.9 8.9 21 8.8 21.2 8.8C21.4 8.8 21.5 8.9 21.5 9.1C21.4 9.3 21.3 9.4 21.2 9.4ZM28.3 19.7C27.9 20.3 27.4 20.4 27.2 20.2C26.9 20 26.8 19.6 27.2 19C27.6 18.4 28.1 18.1 28.4 18.3C28.7 18.5 28.7 19.1 28.3 19.7Z" fill="white"/>
<path d="M22.3 8.20004L23 7.10004L22 7.50004L21.6 6.60004L21.2 7.50004L20.2 7.10004L20.9 8.20004H22.3Z" fill="white"/>
<path d="M11.8 15.7C11.8 15.1 11.4 14.6 11.1 14.6C10.8 14.6 10.6 15.1 10.6 15.8C10.6 16.4 11 16.7 11.3 16.7C11.6 16.6 11.9 16.3 11.8 15.7Z" fill="white"/>
<path d="M32.2 23.8C31.9 23.6 31.4 23.9 31.1 24.4C30.7 24.9 30.8 25.4 31.1 25.5C31.4 25.7 31.8 25.5 32.2 25C32.5 24.5 32.5 23.9 32.2 23.8Z" fill="white"/>
<path d="M25.7 4.50002C25.7 4.20002 25.4 3.90002 24.7 3.90002C24 3.90002 23.5 4.20002 23.5 4.50002C23.5 4.80002 24 5.10003 24.6 5.10003C25.3 5.10003 25.7 4.80002 25.7 4.50002Z" fill="white"/>
<path d="M12.3 24.4C11.9 23.9 11.4 23.6 11.1 23.8C10.8 24 10.8 24.5 11.2 25C11.6 25.5 12 25.6 12.3 25.5C12.6 25.3 12.7 24.9 12.3 24.4Z" fill="white"/>
<path d="M20.3 27.5C19.6 27.4 19.1 27.6 19 27.9C18.9 28.2 19.4 28.6 20 28.7C20.6 28.8 21.1 28.6 21.1 28.3C21.2 28 20.9 27.6 20.3 27.5Z" fill="white"/>
<path d="M21.6 1.00002C17.6 3.10002 12.7 3.10002 8.70001 1.00002V24.2C8.70001 27 11 29.3 13.9 29.3C16.7 29.3 19.2 29.7 21.6 31.2C24 29.7 26.5 29.3 29.3 29.3C32.2 29.3 34.6 27.1 34.6 24.2V0.900024C30.5 3.10002 25.7 3.10002 21.6 1.00002ZM32 4.60003C32 4.60003 32.1 4.10003 32.2 4.10003C32.3 4.10003 32.5 4.60003 32.5 4.60003C32.7 4.40003 33.1 4.60003 33.1 4.60003V4.70003C32.8 4.60003 32.5 4.90002 32.6 5.00002C32.6 5.10002 32.2 5.10002 32.2 5.00002C32.2 4.80002 31.9 4.60003 31.6 4.70003V4.60003C31.4 4.70003 31.8 4.40003 32 4.60003ZM32.3 5.20003C33.1 5.10003 33.8 5.60003 33.8 6.20003C33.8 6.80003 33.3 7.30002 32.6 7.40002C33 7.60002 33.5 7.40002 33.8 7.30002C33.8 7.30002 33.9 8.00002 32.8 7.80002C32.8 8.40002 32.5 8.80002 32.3 9.40002C32.4 9.30002 32.5 9.20003 32.6 9.10003C32.9 8.90003 33.3 8.80002 33.7 8.90002C33.7 9.20002 33.5 9.50003 33.2 9.70003C32.9 9.90003 32.6 10 32.3 9.90002C32.3 10.2 32.4 10.5 32.6 10.9L32.1 11.3C31.8 10.8 31.7 9.60002 32.2 8.80002C32.5 8.20002 32.5 8.00002 32.5 7.80002C32.1 7.90002 31.4 8.10002 31.3 7.50002C31.3 7.50002 32.1 7.60002 32.5 7.40002C31.8 7.40002 31.2 7.00002 31.1 6.40002C30.9 5.80002 31.5 5.30003 32.3 5.20003ZM33.2 14C32.9 14 32.6 14.3 32.6 14.4C32.6 14.5 32.2 14.5 32.2 14.4C32.2 14.2 32 13.9 31.7 14.1V14C31.7 14 32.1 13.8 32.3 14C32.3 14 32.5 13.5 32.6 13.5C32.7 13.5 32.8 14 32.8 14C32.8 13.7 33.2 14 33.2 14ZM24.7 3.10003C25.3 3.10003 25.8 3.70002 25.8 4.40002C26 4.00002 25.9 3.50003 25.8 3.20003C25.8 3.20003 26.6 3.20003 26.3 4.20003C26.9 4.20003 27.3 4.60002 27.9 4.80002C27.8 4.70002 27.7 4.60002 27.6 4.50002C27.4 4.20002 27.4 3.80002 27.5 3.50002C27.8 3.60002 28.1 3.80003 28.3 4.10003C28.5 4.40003 28.5 4.70002 28.5 5.00002C28.8 5.00002 29.1 5.00002 29.5 4.80002L29.9 5.30002C29.3 5.50002 28.1 5.50002 27.3 5.00002C26.8 4.70002 26.5 4.60003 26.3 4.60003C26.4 4.90003 26.5 5.70003 25.9 5.70003C25.9 5.70003 26.1 4.90002 25.8 4.50002C25.8 5.20002 25.3 5.80002 24.6 5.80002C24 5.80002 23.5 5.20002 23.5 4.40002C23.5 3.70002 24 3.10003 24.7 3.10003ZM22.8 4.20003C22.6 4.00003 22.9 3.60003 22.9 3.60003H23C22.8 3.90003 23.2 4.10003 23.3 4.10003C23.4 4.10003 23.4 4.50002 23.3 4.50002C23.1 4.50002 22.8 4.80003 22.9 5.10003H22.8C22.8 5.10003 22.6 4.80002 22.8 4.50002C22.8 4.50002 22.3 4.40002 22.3 4.30002C22.2 4.30002 22.8 4.20003 22.8 4.20003ZM20.1 4.20003C20.3 4.20003 20.6 3.90003 20.4 3.70003H20.5C20.5 3.70003 20.8 4.00002 20.6 4.30002C20.6 4.30002 21.2 4.40002 21.2 4.50002C21.2 4.60002 20.7 4.70003 20.7 4.70003C20.9 4.90003 20.7 5.30002 20.7 5.30002H20.6C20.7 5.00002 20.4 4.70003 20.2 4.70003C20 4.60003 20 4.20003 20.1 4.20003ZM13.9 4.70003C14.3 4.80003 14.6 4.90002 14.9 4.90002C14.8 4.60002 14.9 4.30002 15.1 4.00002C15.3 3.70002 15.6 3.50002 15.9 3.40002C16 3.70002 16 4.10002 15.8 4.40002C15.7 4.50002 15.6 4.60003 15.5 4.70003C16.1 4.50003 16.5 4.10003 17.1 4.10003C16.8 3.00003 17.6 3.10003 17.6 3.10003C17.6 3.30003 17.4 3.80002 17.6 4.30002C17.6 3.60002 18.1 3.00002 18.7 3.00002C19.4 3.00002 19.9 3.60002 19.9 4.40002C19.9 5.20002 19.4 5.80002 18.8 5.80002C18.2 5.80002 17.6 5.20002 17.6 4.50002C17.3 4.90002 17.5 5.70003 17.5 5.70003C16.9 5.70003 17 4.90003 17.1 4.60003C16.9 4.60003 16.7 4.70002 16.1 5.00002C15.3 5.50002 14.1 5.50002 13.5 5.30002L13.9 4.70003ZM11 4.50002C11 4.50002 11.2 4.00002 11.3 4.00002C11.4 4.00002 11.5 4.50002 11.5 4.50002C11.8 4.30002 12.1 4.60003 12.1 4.60003V4.70003C11.8 4.60003 11.5 4.90002 11.5 5.00002C11.5 5.10002 11.1 5.10002 11.1 5.00002C11.1 4.80002 10.9 4.50003 10.6 4.70003V4.60003C10.4 4.60003 10.8 4.40002 11 4.50002ZM11.1 5.20003C11.9 5.20003 12.5 5.80002 12.4 6.40002C12.3 7.00002 11.7 7.40002 11 7.40002C11.4 7.70002 12.2 7.50002 12.2 7.50002C12.1 8.10002 11.4 7.90002 11 7.80002C11 8.00002 11 8.20002 11.3 8.80002C11.7 9.60002 11.6 10.8 11.4 11.3L10.9 10.9C11.1 10.5 11.2 10.2 11.2 9.90002C10.9 9.90002 10.6 9.80003 10.3 9.70003C10 9.50003 9.80002 9.20002 9.80002 8.90002C10.2 8.80002 10.6 8.90003 10.9 9.10003C11 9.20003 11.1 9.30002 11.2 9.40002C11 8.80002 10.7 8.40002 10.7 7.80002C9.60001 8.00002 9.70001 7.30002 9.70001 7.30002C10 7.40002 10.4 7.50002 10.9 7.40002C10.2 7.30002 9.70001 6.80003 9.70001 6.20003C9.60001 5.60003 10.3 5.20003 11.1 5.20003ZM11.9 13.9C11.6 13.9 11.3 14.2 11.3 14.3C11.3 14.4 10.9 14.4 10.9 14.3C10.9 14.1 10.6 13.9 10.3 14V13.9C10.3 13.9 10.6 13.6 10.9 13.8C10.9 13.8 11 13.3 11.1 13.3C11.2 13.3 11.4 13.8 11.4 13.8C11.5 13.7 11.9 13.9 11.9 13.9ZM9.40001 17.6C9.80001 17.6 10.1 17.7 10.4 18C10.6 18.1 10.7 18.4 10.7 18.6C10.7 18.5 10.8 18.4 10.8 18.3C11.1 17.7 11.1 17.5 11.1 17.3C10.7 17.4 10 17.6 9.90001 17C9.90001 17 10.8 17.1 11.1 16.8C10.4 16.8 9.70001 16.4 9.70001 15.8C9.70001 15.2 10.3 14.7 11 14.6C11.8 14.6 12.5 15 12.5 15.6C12.5 16.2 12 16.7 11.2 16.8C11.7 17 12.2 16.8 12.4 16.7C12.4 16.7 12.5 17.4 11.4 17.2C11.5 18.2 10.4 18.7 11.2 20.3L10.7 20.7C10.5 20.3 10.4 19.5 10.6 18.8C10.3 18.8 9.90001 18.7 9.70001 18.4C9.50001 18.2 9.40001 17.9 9.40001 17.6ZM10.2 23.7C10.1 23.6 10.3 23.2 10.6 23.3C10.6 23.3 10.4 22.8 10.5 22.8C10.6 22.7 11 23.1 11 23.1C11.1 22.8 11.5 22.8 11.5 22.8V22.9C11.2 23 11.1 23.3 11.2 23.5C11.3 23.6 10.9 23.8 10.9 23.7C10.8 23.5 10.4 23.4 10.2 23.7ZM14.6 28.4C14.5 28 14.4 27.7 14.2 27.5C14 27.7 13.6 27.8 13.3 27.8C12.9 27.8 12.5 27.7 12.3 27.4C12.5 27.1 12.9 27 13.3 27C13.5 27 13.6 27 13.7 27C13.2 26.6 12.7 26.5 12.3 26C11.5 26.8 11.2 26.2 11.2 26.2C11.4 26.1 12 26 12.2 25.5C11.6 25.9 10.8 25.8 10.4 25.3C10.1 24.8 10.3 24 11 23.6C11.7 23.2 12.5 23.3 12.8 23.8C13.1 24.3 12.9 25 12.3 25.4C12.8 25.4 13.4 24.8 13.4 24.8C13.7 25.3 13 25.6 12.6 25.7C12.7 25.9 12.9 26 13.4 26.3C14.3 26.7 14.9 27.7 15 28.3L14.6 28.4ZM18.7 28C18.5 28 18.1 28.2 18.2 28.5H18.1C18.1 28.5 17.9 28.1 18.2 27.9C18.2 27.9 17.7 27.7 17.7 27.6C17.7 27.5 18.3 27.5 18.3 27.5C18.1 27.2 18.5 26.9 18.5 26.9L18.6 27C18.4 27.3 18.7 27.6 18.8 27.6C18.9 27.6 18.8 28 18.7 28ZM24.8 28.8C24.4 28.6 24.1 28.5 23.8 28.4C23.8 28.7 23.7 29 23.4 29.2C23.1 29.5 22.8 29.6 22.5 29.6C22.5 29.3 22.6 28.9 22.9 28.6C23 28.5 23.1 28.4 23.2 28.4C22.6 28.5 22.1 28.7 21.5 28.6C21.6 29.7 20.8 29.5 20.8 29.5C20.9 29.3 21.2 28.8 21 28.4C20.8 29.1 20.2 29.6 19.6 29.4C19 29.2 18.6 28.5 18.7 27.8C18.9 27 19.5 26.5 20.1 26.7C20.7 26.8 21 27.5 20.9 28.2C21.2 27.9 21.2 27.1 21.2 27.1C21.8 27.3 21.5 27.9 21.4 28.2C21.6 28.3 21.9 28.2 22.4 28.1C23.3 27.8 24.5 28 25 28.4L24.8 28.8ZM21.6 26.3C19.9 25.3 18.4 25.1 16.5 25.1C14.5 25.1 13.1 23.6 13.1 21.7V6.10003C15.2 7.20003 19.7 6.50002 21.7 5.40002C23.7 6.40002 28.2 7.20003 30.3 6.10003V21.7C30.3 23.5 28.6 25.1 26.7 25.1C24.8 25.1 23.2 25.3 21.6 26.3ZM32.8 25.4C32.5 25.9 31.7 26 31.1 25.6C31.4 26 31.9 26.2 32.1 26.2C32.1 26.2 31.7 26.8 31 26C30.7 26.5 30.1 26.6 29.6 27C29.7 27 29.9 27 30 27C30.4 27 30.7 27.2 31 27.4C30.8 27.6 30.4 27.8 30 27.8C29.7 27.8 29.4 27.7 29.1 27.5C28.9 27.7 28.8 28 28.7 28.4H28C28.1 27.8 28.8 26.8 29.6 26.4C30.2 26.1 30.3 26 30.5 25.8C30.1 25.7 29.5 25.4 29.7 24.9C29.7 24.9 30.3 25.5 30.7 25.5C30.1 25.1 29.9 24.4 30.2 23.9C30.5 23.4 31.3 23.3 32 23.7C32.9 24.1 33.2 24.9 32.8 25.4ZM33.2 23.7C33 23.4 32.6 23.5 32.5 23.7C32.5 23.8 32.1 23.5 32.1 23.5C32.2 23.3 32.2 23 31.8 22.9V22.8C31.8 22.8 32.2 22.8 32.3 23.1C32.3 23.1 32.7 22.7 32.8 22.8C32.9 22.9 32.7 23.3 32.7 23.3C33.1 23.2 33.3 23.6 33.2 23.7ZM33.7 18.4C33.5 18.6 33.1 18.8 32.8 18.8C33 19.5 32.9 20.3 32.7 20.7L32.2 20.3C33 18.7 31.9 18.2 32 17.2C30.9 17.4 31 16.7 31 16.7C31.2 16.8 31.7 17 32.2 16.8C31.5 16.7 30.9 16.2 30.9 15.6C31 15 31.7 14.6 32.4 14.6C33.2 14.7 33.8 15.2 33.7 15.8C33.6 16.4 33 16.8 32.3 16.8C32.7 17.1 33.5 17 33.5 17C33.4 17.6 32.7 17.4 32.3 17.3C32.3 17.5 32.3 17.7 32.6 18.3C32.6 18.4 32.7 18.5 32.7 18.6C32.7 18.4 32.9 18.2 33 18C33.3 17.7 33.6 17.6 34 17.6C34 17.9 33.9 18.2 33.7 18.4Z" fill="white"/>
<path d="M11 7.30001C11.3 7.30001 11.6 7.00001 11.7 6.40001C11.7 5.80001 11.5 5.30001 11.2 5.20001C10.9 5.20001 10.5 5.60001 10.5 6.30001C10.4 7.00001 10.6 7.30001 11 7.30001Z" fill="white"/>
<path d="M32.4 7.30001C32.7 7.30001 33 6.90001 33 6.30001C33 5.70001 32.6 5.20001 32.3 5.20001C32 5.20001 31.7 5.70001 31.8 6.40001C31.8 7.10001 32.1 7.40001 32.4 7.30001Z" fill="white"/>
<path d="M18.7 5.00005C19.3 5.00005 19.8 4.70005 19.9 4.40005C19.9 4.10005 19.4 3.80005 18.7 3.80005C18.1 3.80005 17.7 4.10005 17.7 4.40005C17.7 4.80005 18 5.10005 18.7 5.00005Z" fill="white"/>
<path d="M32.8 15.8C32.8 15.2 32.6 14.7 32.3 14.6C32 14.6 31.6 15 31.6 15.7C31.6 16.3 31.9 16.7 32.2 16.7C32.5 16.7 32.8 16.4 32.8 15.8Z" fill="white"/>
</svg>
