<svg width="20" height="14" viewBox="0 0 20 14" fill="none" xmlns="http://www.w3.org/2000/svg">
<path d="M3 5.69597C4.10313 5.69597 5 4.84454 5 3.79731C5 2.75008 4.10313 1.89866 3 1.89866C1.89688 1.89866 1 2.75008 1 3.79731C1 4.84454 1.89688 5.69597 3 5.69597ZM17 5.69597C18.1031 5.69597 19 4.84454 19 3.79731C19 2.75008 18.1031 1.89866 17 1.89866C15.8969 1.89866 15 2.75008 15 3.79731C15 4.84454 15.8969 5.69597 17 5.69597ZM18 6.64529H16C15.45 6.64529 14.9531 6.85593 14.5906 7.19709C15.85 7.85272 16.7437 9.03641 16.9375 10.4426H19C19.5531 10.4426 20 10.0184 20 9.49328V8.54395C20 7.49672 19.1031 6.64529 18 6.64529ZM10 6.64529C11.9344 6.64529 13.5 5.159 13.5 3.32265C13.5 1.48629 11.9344 0 10 0C8.06563 0 6.5 1.48629 6.5 3.32265C6.5 5.159 8.06563 6.64529 10 6.64529ZM12.4 7.59462H12.1406C11.4906 7.89129 10.7688 8.06929 10 8.06929C9.23125 8.06929 8.5125 7.89129 7.85938 7.59462H7.6C5.6125 7.59462 4 9.12541 4 11.0122V11.8666C4 12.6528 4.67188 13.2906 5.5 13.2906H14.5C15.3281 13.2906 16 12.6528 16 11.8666V11.0122C16 9.12541 14.3875 7.59462 12.4 7.59462ZM5.40938 7.19709C5.04688 6.85593 4.55 6.64529 4 6.64529H2C0.896875 6.64529 0 7.49672 0 8.54395V9.49328C0 10.0184 0.446875 10.4426 1 10.4426H3.05938C3.25625 9.03641 4.15 7.85272 5.40938 7.19709Z" fill="#222433"/>
</svg>
