<svg width="18" height="16" viewBox="0 0 18 16" fill="none" xmlns="http://www.w3.org/2000/svg">
<path d="M16.3125 16H1.6875C0.755508 16 0 15.2325 0 14.2857V1.71429C0 0.7675 0.755508 0 1.6875 0H16.3125C17.2445 0 18 0.7675 18 1.71429V14.2857C18 15.2325 17.2445 16 16.3125 16ZM4.5 3.14286C3.72336 3.14286 3.09375 3.78246 3.09375 4.57143C3.09375 5.36039 3.72336 6 4.5 6C5.27664 6 5.90625 5.36039 5.90625 4.57143C5.90625 3.78246 5.27664 3.14286 4.5 3.14286ZM4.5 6.57143C3.72336 6.57143 3.09375 7.21104 3.09375 8C3.09375 8.78896 3.72336 9.42857 4.5 9.42857C5.27664 9.42857 5.90625 8.78896 5.90625 8C5.90625 7.21104 5.27664 6.57143 4.5 6.57143ZM4.5 10C3.72336 10 3.09375 10.6396 3.09375 11.4286C3.09375 12.2175 3.72336 12.8571 4.5 12.8571C5.27664 12.8571 5.90625 12.2175 5.90625 11.4286C5.90625 10.6396 5.27664 10 4.5 10ZM14.625 5.14286V4C14.625 3.76332 14.4361 3.57143 14.2031 3.57143H7.17188C6.93889 3.57143 6.75 3.76332 6.75 4V5.14286C6.75 5.37954 6.93889 5.57143 7.17188 5.57143H14.2031C14.4361 5.57143 14.625 5.37954 14.625 5.14286ZM14.625 8.57143V7.42857C14.625 7.19189 14.4361 7 14.2031 7H7.17188C6.93889 7 6.75 7.19189 6.75 7.42857V8.57143C6.75 8.80811 6.93889 9 7.17188 9H14.2031C14.4361 9 14.625 8.80811 14.625 8.57143ZM14.625 12V10.8571C14.625 10.6205 14.4361 10.4286 14.2031 10.4286H7.17188C6.93889 10.4286 6.75 10.6205 6.75 10.8571V12C6.75 12.2367 6.93889 12.4286 7.17188 12.4286H14.2031C14.4361 12.4286 14.625 12.2367 14.625 12Z" fill="#222433"/>
</svg>
